<svg width="56" height="53" viewBox="0 0 56 53" fill="none" xmlns="http://www.w3.org/2000/svg">
<rect width="56" height="53" rx="26.5" fill="#EADDFF"/>
<path fill-rule="evenodd" clip-rule="evenodd" d="M36.4003 21.2C36.4003 25.5907 32.6395 29.15 28.0003 29.15C23.3612 29.15 19.6003 25.5907 19.6003 21.2C19.6003 16.8093 23.3612 13.25 28.0003 13.25C32.6395 13.25 36.4003 16.8093 36.4003 21.2ZM33.6003 21.2C33.6003 24.1271 31.0931 26.5 28.0003 26.5C24.9075 26.5 22.4003 24.1271 22.4003 21.2C22.4003 18.2729 24.9075 15.9 28.0003 15.9C31.0931 15.9 33.6003 18.2729 33.6003 21.2Z" fill="#21005D"/>
<path d="M28.0003 33.125C18.9362 33.125 11.2133 38.1976 8.27148 45.3045C8.98814 45.978 9.74308 46.615 10.5329 47.2125C12.7236 40.6877 19.5957 35.775 28.0003 35.775C36.4049 35.775 43.2771 40.6877 45.4678 47.2125C46.2576 46.6151 47.0126 45.978 47.7292 45.3045C44.7874 38.1977 37.0645 33.125 28.0003 33.125Z" fill="#21005D"/>
</svg>
