<svg width="60" height="63" viewBox="0 0 60 63" fill="none" xmlns="http://www.w3.org/2000/svg">
<path d="M34.325 55.125C33.8855 55.9206 33.2546 56.581 32.4956 57.04C31.7365 57.4991 30.8759 57.7407 30 57.7407C29.1241 57.7407 28.2635 57.4991 27.5044 57.04C26.7454 56.581 26.1145 55.9206 25.675 55.125M45 21C45 16.8228 43.4196 12.8168 40.6066 9.86307C37.7936 6.90937 33.9782 5.25 30 5.25C26.0218 5.25 22.2064 6.90937 19.3934 9.86307C16.5804 12.8168 15 16.8228 15 21C15 39.375 7.5 44.625 7.5 44.625H52.5C52.5 44.625 45 39.375 45 21Z" stroke="#1E1E1E" stroke-width="4" stroke-linecap="round" stroke-linejoin="round"/>
</svg>
