<svg width="39" height="40" viewBox="0 0 39 40" fill="none" xmlns="http://www.w3.org/2000/svg">
<path d="M28.4375 10.8334H28.4538M11.375 3.33337H27.625C32.1123 3.33337 35.75 7.06433 35.75 11.6667V28.3334C35.75 32.9357 32.1123 36.6667 27.625 36.6667H11.375C6.88769 36.6667 3.25 32.9357 3.25 28.3334V11.6667C3.25 7.06433 6.88769 3.33337 11.375 3.33337ZM26 18.95C26.2005 20.3371 25.9695 21.7537 25.3399 22.9984C24.7102 24.2431 23.7139 25.2524 22.4926 25.8828C21.2714 26.5133 19.8875 26.7327 18.5377 26.5099C17.1878 26.2872 15.9409 25.6335 14.9741 24.642C14.0074 23.6504 13.3701 22.3715 13.1529 20.9871C12.9357 19.6026 13.1496 18.1832 13.7643 16.9307C14.379 15.6781 15.3631 14.6563 16.5766 14.0104C17.7901 13.3646 19.1714 13.1277 20.5238 13.3334C21.9032 13.5432 23.1804 14.2025 24.1665 15.2139C25.1526 16.2253 25.7954 17.5352 26 18.95Z" stroke="white" stroke-width="4" stroke-linecap="round" stroke-linejoin="round"/>
</svg>
