<svg width="33" height="37" viewBox="0 0 33 37" fill="none" xmlns="http://www.w3.org/2000/svg">
<path d="M30.25 26.0849V30.7099C30.2515 31.1393 30.1731 31.5643 30.0197 31.9577C29.8663 32.3511 29.6413 32.7042 29.3591 32.9945C29.0769 33.2847 28.7438 33.5057 28.381 33.6433C28.0182 33.7808 27.6339 33.8319 27.2525 33.7933C23.0214 33.2778 18.9571 31.6568 15.3862 29.0604C12.064 26.6934 9.24731 23.5353 7.13622 19.8104C4.81244 15.7885 3.3663 11.2094 2.91497 6.44411C2.88061 6.01779 2.9258 5.58812 3.04766 5.18245C3.16952 4.77678 3.36538 4.40401 3.62277 4.08786C3.88017 3.77172 4.19345 3.51912 4.54268 3.34617C4.89191 3.17321 5.26944 3.08368 5.65122 3.08328H9.77622C10.4435 3.07592 11.0904 3.34086 11.5964 3.82873C12.1023 4.31659 12.4328 4.99409 12.5262 5.73495C12.7003 7.21505 13.0232 8.66832 13.4887 10.067C13.6737 10.6188 13.7138 11.2185 13.6041 11.7951C13.4944 12.3716 13.2397 12.9008 12.87 13.3199L11.1237 15.2779C13.0811 19.1375 15.9313 22.3332 19.3737 24.5279L21.12 22.5699C21.4938 22.1554 21.9658 21.8698 22.48 21.7468C22.9942 21.6239 23.5291 21.6688 24.0212 21.8762C25.2687 22.3981 26.5649 22.7602 27.885 22.9554C28.5529 23.061 29.1629 23.4382 29.599 24.0153C30.035 24.5923 30.2667 25.3289 30.25 26.0849Z" stroke="white" stroke-width="4" stroke-linecap="round" stroke-linejoin="round"/>
</svg>
