<svg width="116" height="20" viewBox="0 0 116 20" fill="none" xmlns="http://www.w3.org/2000/svg">
<path d="M10.0001 1.66675L12.5751 6.88341L18.3334 7.72508L14.1667 11.7834L15.1501 17.5167L10.0001 14.8084L4.85008 17.5167L5.83341 11.7834L1.66675 7.72508L7.42508 6.88341L10.0001 1.66675Z" stroke="#2C2C2C" stroke-width="2" stroke-linecap="round" stroke-linejoin="round"/>
<path d="M34.0001 1.66675L36.5751 6.88341L42.3334 7.72508L38.1667 11.7834L39.1501 17.5167L34.0001 14.8084L28.8501 17.5167L29.8334 11.7834L25.6667 7.72508L31.4251 6.88341L34.0001 1.66675Z" stroke="#2C2C2C" stroke-width="2" stroke-linecap="round" stroke-linejoin="round"/>
<path d="M58.0001 1.66675L60.5751 6.88341L66.3334 7.72508L62.1667 11.7834L63.1501 17.5167L58.0001 14.8084L52.8501 17.5167L53.8334 11.7834L49.6667 7.72508L55.4251 6.88341L58.0001 1.66675Z" stroke="#2C2C2C" stroke-width="2" stroke-linecap="round" stroke-linejoin="round"/>
<path d="M82.0001 1.66675L84.5751 6.88341L90.3334 7.72508L86.1667 11.7834L87.1501 17.5167L82.0001 14.8084L76.8501 17.5167L77.8334 11.7834L73.6667 7.72508L79.4251 6.88341L82.0001 1.66675Z" stroke="#2C2C2C" stroke-width="2" stroke-linecap="round" stroke-linejoin="round"/>
<path d="M106 1.66675L108.575 6.88341L114.333 7.72508L110.167 11.7834L111.15 17.5167L106 14.8084L100.85 17.5167L101.833 11.7834L97.6667 7.72508L103.425 6.88341L106 1.66675Z" stroke="#2C2C2C" stroke-width="2" stroke-linecap="round" stroke-linejoin="round"/>
</svg>
